inDegrees=no
num_controls=7
num_derivatives=13
num_iterations=233
num_multipliers=7
num_parameters=0
num_slacks=7
num_states=26
objective=5.973248
objective_accelerations=0.744248
objective_balance=0.024333
objective_effort=0.511464
objective_height=4.598929
objective_ligament=0.094274
solver_duration=1923.183001
status=Solve_Succeeded
success=true
DataType=double
version=3
OpenSimVersion=4.4-2022-07-23-0e9fedc
endheader
time	/jointset/ground_pelvis/pelvis_tilt/value	/jointset/ground_pelvis/pelvis_tx/value	/jointset/ground_pelvis/pelvis_ty/value	/jointset/hip_r/hip_flexion_r/value	/jointset/hip_r/hip_adduction_r/value	/jointset/hip_r/hip_rotation_r/value	/jointset/back/lumbar_extension/value	/jointset/patellofemoral_r/patellar_flexion_r/value	/jointset/knee_r/knee_flexion_r/value	/jointset/knee_r/knee_adduction_r/value	/jointset/knee_r/knee_rotation_r/value	/jointset/ankle_r/ankle_angle_r/value	/jointset/subtalar_r/subtalar_angle_r/value	/jointset/ground_pelvis/pelvis_tilt/speed	/jointset/ground_pelvis/pelvis_tx/speed	/jointset/ground_pelvis/pelvis_ty/speed	/jointset/hip_r/hip_flexion_r/speed	/jointset/hip_r/hip_adduction_r/speed	/jointset/hip_r/hip_rotation_r/speed	/jointset/back/lumbar_extension/speed	/jointset/patellofemoral_r/patellar_flexion_r/speed	/jointset/knee_r/knee_flexion_r/speed	/jointset/knee_r/knee_adduction_r/speed	/jointset/knee_r/knee_rotation_r/speed	/jointset/ankle_r/ankle_angle_r/speed	/jointset/subtalar_r/subtalar_angle_r/speed	/forceset/tau_hip_flexion_r	/forceset/tau_hip_adduction_r	/forceset/tau_hip_rotation_r	/forceset/tau_knee_flexion_r	/forceset/tau_ankle_angle_r	/forceset/tau_subtalar_angle_r	/forceset/tau_lumbar_extension	lambda_cid13_p0	lambda_cid14_p0	lambda_cid14_p1	lambda_cid14_p2	lambda_cid14_p3	lambda_cid14_p4	lambda_cid14_p5	/jointset/ground_pelvis/pelvis_tilt/accel	/jointset/ground_pelvis/pelvis_tx/accel	/jointset/ground_pelvis/pelvis_ty/accel	/jointset/hip_r/hip_flexion_r/accel	/jointset/hip_r/hip_adduction_r/accel	/jointset/hip_r/hip_rotation_r/accel	/jointset/back/lumbar_extension/accel	/jointset/patellofemoral_r/patellar_flexion_r/accel	/jointset/knee_r/knee_flexion_r/accel	/jointset/knee_r/knee_adduction_r/accel	/jointset/knee_r/knee_rotation_r/accel	/jointset/ankle_r/ankle_angle_r/accel	/jointset/subtalar_r/subtalar_angle_r/accel	gamma_cid13_p0	gamma_cid14_p0	gamma_cid14_p1	gamma_cid14_p2	gamma_cid14_p3	gamma_cid14_p4	gamma_cid14_p5
1.5	-0.117919938102641	0.0208161822440456	0.7957284177029098	0.9094389818596312	-0.2232605780705301	-0.1221791502738802	-0.6376738969383388	1.009756363304448	1.00975636330445	-0.06536927661223897	0.1745328061470358	0.3141090420283377	0.1460182867235185	0.553284448764315	0.2388218304768847	0.5990409520418108	-2.281477819416485	0.0359346776878074	-0.2245955478450042	0.7989559315174085	-2.148770956413918	-2.148770956413917	0.4460866924521125	4.765607684062963e-05	-0.5284848162781227	-0.1596053871642488	-0.1814105155776169	0.0004998676395905169	0.01798790121651258	-0.3083165856022393	0.01320495008481583	0.004935700486641843	0.2268430551596974	-5.901947182517561	-37.08670240083736	-3.615435992981682	0.1592404890138149	-3.937039805486775	-626.219086513838	67.06556702379771	0.3090682290781708	0.6819062911295191	-0.5935282754475978	-1.139935917144949	-0.201255932806869	-0.4901256202234776	2.009333508110356	-1.449395339402604	-1.449395339402604	0.5663799870848364	-0.03878755138299982	-0.8044449375714515	-0.4861765048691596	1.539290778850294e-07	1.520887752274983e-08	-2.039555007047575e-06	4.812294458600217e-07	1.949919886811575e-07	3.016594137673364e-07	-1.371544977845527e-06
1.51	-0.1123719447369034	0.02323825611652478	0.8016879724310567	0.8865692195244156	-0.2229125455272725	-0.1244492098930982	-0.6295857281926587	0.9881988201369197	0.9881988201369203	-0.06087787073815113	0.1745329251994329	0.3087844737090479	0.1443963584694234	0.5562209497616514	0.2455642842914779	0.5927400575141882	-2.292169109871879	0.03366211028005795	-0.2294626554250051	0.8185630337677096	-2.162446161339919	-2.162446161339918	0.4521207717840544	-1.611674287556674e-05	-0.5363345811549688	-0.164734491589175	-0.1732315502547299	-0.0008663808308576467	0.01783965082757652	-0.303847444025023	0.01498898008157018	0.004384551637291282	0.2193896421499294	-6.861220879067489	-36.16631684309189	-3.553156196875621	-0.01116274358074834	-4.057250264108597	-620.4000428633262	66.71840894381023	0.2719720542890628	0.666115511473209	-0.6677777491245901	-0.9878655290833219	-0.2415022121207856	-0.4915653399183229	1.919181005854528	-1.282902583581321	-1.282902583581226	0.6106927712492481	0.01113312551273492	-0.761047691308877	-0.5193553458430713	2.070304733359116e-07	1.487121012415619e-07	-1.478616136278281e-06	1.521330243083455e-06	6.479236521154814e-08	3.754851050224046e-07	-9.31781576919923e-07
1.52	-0.1067973801573471	0.0257268946441197	0.8075806366723866	0.8636017163007764	-0.2225874876715649	-0.1267692529907219	-0.6213049319400028	0.966513261017255	0.9665132610172538	-0.05632836989774412	0.1745326825083332	0.303384246655276	0.1427245235841713	0.5585986915280964	0.2521347615000301	0.5856628546783655	-2.30102599710114	0.03133974017783599	-0.2345922435262035	0.8374814329125924	-2.174374146841219	-2.174374146841216	0.4577056857160116	-2.767865144511152e-05	-0.5436165631745227	-0.1695867133956502	-0.1650525849318429	-0.00223262930130458	0.01769140043864712	-0.2993783024478061	0.01677301007832482	0.003833402787942772	0.2119362291401612	-7.893671680986569	-35.23899512242389	-3.481019547485341	-0.193009640846186	-4.209704257654356	-614.4887209967713	66.45098924336931	0.1973163828999163	0.6475109699213272	-0.748789937087593	-0.773055271918261	-0.2112164717013687	-0.542621724462984	1.871592887026658	-1.099951454462296	-1.099951454462296	0.4765469070878967	-0.02834536915367314	-0.6908883661129981	-0.4307999811789665	2.296079474758803e-07	2.035819141396026e-07	-1.266677716377415e-06	1.941228184333549e-06	1.260900835387984e-08	4.113688835355973e-07	-7.742665137258682e-07
1.53	-0.1012018388104017	0.02828024688243304	0.8133987021497698	0.8405549528823143	-0.2222857968254326	-0.1291421634367921	-0.6128385189206046	0.9447172504916513	0.944717250491651	-0.05172559577010856	0.1745326172673247	0.2979140524381895	0.1410057254422606	0.5604200029475951	0.2584933252259677	0.5778269983188263	-2.308010418074558	0.02898673324161761	-0.2399917325938503	0.8556662138571832	-2.184517557558953	-2.184517557558952	0.4628170711477209	9.341410417340534e-06	-0.5503294462112778	-0.1741347132119925	-0.1570940542402567	-0.002945624737274438	0.01753678347597946	-0.2947694132977457	0.01806625899489747	0.002766824507490425	0.2045907711931066	-8.997557314858573	-34.54072978876152	-3.713697010328544	-0.2795917602266195	-4.068729896196685	-608.9002667584673	65.56977462099762	0.1611166469139518	0.6236868850498214	-0.8193889437017076	-0.6136747942291296	-0.2489757088080687	-0.5385554442450963	1.771677131690017	-0.9250186680078346	-0.9250186680080099	0.5234172714420513	0.01919928883016781	-0.6475027236013714	-0.461121003430238	2.197537552230039e-07	1.749037280405743e-07	-1.425552275524249e-06	1.702160591111977e-06	4.331793477139808e-08	4.069393797605477e-07	-9.166403093715813e-07
1.54	-0.09559076872417378	0.03089591632022972	0.8191347279718948	0.8174478373972827	-0.2220079626295077	-0.1315690573628052	-0.6041943068050575	0.9228291093013551	0.9228291093013551	-0.0470727112061099	0.1745328169458985	0.2923795265005066	0.1392425830978729	0.5617044393846586	0.2645982013966986	0.5692549236267017	-2.313096410414996	0.02656841013636011	-0.24538893951468	0.8730412521423627	-2.19280027977984	-2.19280027977984	0.4677277729886144	2.530527123845135e-05	-0.5564829072938171	-0.1784555538910702	-0.1491355235486714	-0.003658620173246482	0.01738216651330819	-0.2901605241476856	0.01935950791146964	0.001700246227034561	0.1972453132460515	-10.14844640781858	-33.83668573822015	-3.937011659714903	-0.3772059945852255	-3.954400349851721	-603.2450466375234	64.76232165682802	0.08994138641290872	0.5967734588799762	-0.8960336036046841	-0.393369545322286	-0.224279705509196	-0.5421652950995894	1.709644355144377	-0.7278137550928673	-0.7278137550928671	0.4364101889247193	-0.03255660936192589	-0.5790039752698543	-0.3853681537260553	2.10073276174473e-07	1.557134924523191e-07	-1.495092725799015e-06	1.535723452485665e-06	5.979748525177234e-08	4.029975710862306e-07	-9.954245057163799e-07
